<svg width="200" height="40" viewBox="0 0 200 40" fill="none" xmlns="http://www.w3.org/2000/svg">
<path d="M173.631 39.4565C172.335 39.4565 171.741 38.5489 171.147 37.6947C168.178 33.4772 165.155 29.2596 162.186 25.042C160.296 22.3727 160.296 22.3727 158.515 24.9352C155.707 28.8859 152.954 32.7831 150.147 36.7338C149.661 37.3744 149.229 38.0684 148.689 38.6557C147.988 39.4565 146.962 39.8836 146.098 39.1362C145.288 38.3888 146.206 37.6947 146.638 37.0541C150.039 32.2493 153.332 27.391 156.895 22.693C158.353 20.7711 158.245 19.4364 156.841 17.5679C153.602 13.2969 150.525 8.91918 147.502 4.54145C146.962 3.79403 145.504 2.83307 146.746 1.92549C147.988 1.01791 149.067 2.08565 149.823 3.20678C152.792 7.42434 155.923 11.5885 158.785 15.8595C160.026 17.728 160.674 17.6746 161.916 15.8595C164.669 11.8021 167.53 7.85144 170.392 3.84742C170.823 3.26016 171.201 2.67291 171.741 2.19242C172.443 1.55178 173.415 1.28485 174.171 1.97888C174.872 2.61952 174.063 3.31355 173.685 3.84742C170.338 8.59885 166.99 13.3503 163.535 17.995C162.294 19.6499 162.348 20.8778 163.589 22.4795C167.206 27.3377 170.661 32.356 174.171 37.2676C174.494 37.7481 175.034 38.2286 174.818 38.9226C174.548 39.4565 174.063 39.4565 173.631 39.4565Z" fill="white"/>
<path d="M26.3593 16.4465C26.3593 20.2903 26.4133 24.0808 26.3593 27.9246C26.1973 35.0785 20.9607 39.8833 13.2948 39.9901C5.57485 40.0435 0.176296 35.1853 0.0683254 27.8713C0.0143399 20.0768 0.0143399 12.2289 0.0683254 4.38102C0.0683254 3.42005 -0.417544 1.92522 1.20202 1.87183C3.03753 1.81845 2.55166 3.47344 2.55166 4.48779C2.60564 11.8018 2.55166 19.0624 2.60564 26.3764C2.65963 34.7048 9.35383 39.3494 17.3437 36.6267C21.5546 35.1853 23.768 31.9287 23.822 26.59C23.8759 19.5429 23.822 12.5492 23.822 5.50214C23.822 4.80811 23.822 4.0607 23.8759 3.36667C23.8759 2.61925 24.0379 1.92522 25.0096 1.87183C26.1433 1.81845 26.3593 2.56586 26.3593 3.47344C26.3593 6.56988 26.3593 9.71971 26.3593 12.8162C26.3593 13.9907 26.3593 15.2186 26.3593 16.4465Z" fill="white"/>
<path d="M76.2941 14.6817C79.2634 11.5852 82.7724 9.87685 87.1452 10.731C91.4101 11.5318 94.0014 14.4147 94.2173 19.2729C94.4873 25.3057 94.3253 31.3384 94.3253 37.3711C94.3253 38.2787 94.2713 39.293 92.9757 39.293C91.572 39.293 91.5181 38.1185 91.5181 37.1576C91.4641 32.3527 91.4641 27.5479 91.4641 22.7431C91.4641 21.7821 91.4641 20.7678 91.4101 19.8068C91.2481 17.351 90.8702 14.8418 88.171 13.8809C85.3637 12.8665 82.4485 12.8665 80.0191 14.8418C77.4818 16.8705 75.9163 19.4865 75.9163 22.9033C75.9702 27.5479 75.9163 32.1392 75.9163 36.7839C75.9163 37.905 76.1862 39.3998 74.4047 39.293C72.8391 39.2397 73.109 37.7982 73.109 36.7839C73.055 29.2563 73.055 21.6754 73.109 14.1478C73.109 13.0267 72.6231 11.2649 74.4586 11.2115C76.4021 11.1581 75.7003 12.9199 75.9702 14.041C76.0242 14.2012 76.1322 14.3614 76.2941 14.6817Z" fill="white"/>
<path d="M139.083 25.4127C139.083 29.31 139.083 33.2606 139.083 37.1578C139.083 38.012 139.191 39.0264 138.003 39.3467C137.032 39.6136 136.492 39.1332 136.222 38.2256C135.736 36.6774 134.926 37.8519 134.386 38.1722C132.173 39.5069 129.69 40.0941 127.152 39.9873C121.538 39.7204 118.245 36.5706 117.921 30.5379C117.597 24.7721 117.813 19.0063 117.813 13.1871C117.813 12.2795 117.867 11.2652 119.108 11.2118C120.566 11.1584 120.62 12.2795 120.62 13.2405C120.674 18.8461 120.62 24.4518 120.728 30.0574C120.782 32.9403 121.538 35.5562 124.615 36.7307C127.746 37.9586 132.011 37.1045 134.17 34.8622C135.574 33.3674 136.222 31.6056 136.222 29.5235C136.168 25.0924 136.222 20.6079 136.222 16.1768C136.222 15.4827 136.168 14.7353 136.222 14.0413C136.33 12.9202 135.79 11.1584 137.733 11.2118C139.461 11.2652 139.029 12.8668 139.083 13.9345C139.137 16.1768 139.083 18.3656 139.083 20.6079C139.083 22.2095 139.083 23.8111 139.083 25.4127Z" fill="white"/>
<path d="M197.171 20.5557C197.333 16.2848 196.847 12.2274 193.932 8.75721C191.287 5.60738 187.885 4.11254 183.729 4.21932C181.947 4.27271 180.112 4.27271 178.33 4.21932C177.466 4.21932 176.71 3.84561 176.764 2.77787C176.818 1.87029 177.412 1.60336 178.222 1.49659C187.993 0.589008 197.981 2.72448 199.708 16.3915C200.194 20.2888 200.14 24.186 199.006 28.0299C196.955 34.7566 191.287 38.9742 184.214 39.1344C182.325 39.1878 180.435 39.1344 178.546 39.1344C177.736 39.1344 176.818 39.081 176.818 37.9599C176.818 36.8387 177.682 36.732 178.492 36.732C180.705 36.6252 183.027 36.7319 185.186 36.4116C192.906 35.2371 197.009 30.4323 197.117 22.7446C197.171 21.9972 197.171 21.3031 197.171 20.5557Z" fill="white"/>
<path d="M62.9075 36.8913C59.8843 39.3471 56.5912 40.3081 52.9202 39.7742C48.0615 39.0268 45.2002 36.3574 44.9843 31.4992C44.7144 25.3597 44.8763 19.2202 44.8763 13.0807C44.8763 12.2799 44.8223 11.319 45.956 11.2656C47.2517 11.1588 47.3596 12.1732 47.3596 13.0807C47.3596 17.6186 47.3596 22.1565 47.4136 26.6944C47.4136 27.9223 47.3596 29.2036 47.4676 30.4315C48.0075 35.3965 50.3828 37.4786 55.2415 37.265C59.9923 37.0515 63.1234 34.0618 63.1774 29.5773C63.2314 24.3454 63.1774 19.0601 63.2314 13.8281C63.2314 12.8672 62.7995 11.3724 64.4191 11.319C66.0926 11.2656 65.7147 12.7604 65.7147 13.7214C65.7687 21.4625 65.7687 29.2036 65.7147 36.9447C65.7147 37.8523 66.0386 39.0802 64.635 39.3471C62.9615 39.5606 63.5013 37.9056 62.9075 36.8913Z" fill="white"/>
<path d="M109.928 39.9877C105.663 40.041 103.342 37.692 103.234 33.1007C103.126 27.8688 103.126 22.6369 103.234 17.405C103.288 15.1094 102.964 13.5611 100.103 13.7747C99.2931 13.8281 98.4293 13.6145 98.3753 12.5468C98.3213 11.3189 99.2391 10.9986 100.157 11.1587C103.18 11.5324 103.234 9.77067 103.234 7.58181C103.234 6.30052 102.316 4.00488 104.638 4.00488C106.635 4.00488 106.041 6.19375 105.987 7.47503C105.771 10.1444 106.581 11.5324 109.55 11.1587C110.522 11.052 111.98 10.8918 111.98 12.4934C111.98 14.0416 110.522 13.9348 109.55 13.8281C106.527 13.5078 105.933 15.0026 105.987 17.6185C106.149 22.9572 106.041 28.2959 106.095 33.5812C106.095 36.0904 107.337 37.3183 109.982 37.2649C111.008 37.2649 112.681 36.7311 112.681 38.5462C112.627 40.3614 110.738 39.4538 109.928 39.9877Z" fill="white"/>
<path d="M37.1531 19.7545C37.1531 25.4136 37.1531 31.126 37.1531 36.785C37.1531 37.7459 37.5309 39.2408 35.9118 39.1874C34.2386 39.1874 34.6704 37.6925 34.6704 36.7316C34.5625 25.3068 34.5625 13.882 34.6164 2.4038C34.6164 1.44284 34.1847 -0.0519953 35.8578 0.00139156C37.5309 0.00139156 37.0991 1.49622 37.0991 2.45719C37.1531 8.22297 37.0991 13.9888 37.1531 19.7545Z" fill="white"/>
</svg>
