<svg width="74" height="34" viewBox="0 0 74 34" fill="none" xmlns="http://www.w3.org/2000/svg">
<path d="M22.1032 1.21484C22.4136 1.21484 22.6619 1.45982 22.6619 1.76603V22.4049C22.6619 25.7121 21.6688 28.2843 19.7446 30.1828C17.8205 32.0201 15.1516 33 11.7999 33C8.4482 33 5.84133 32.0814 3.85514 30.1828C1.99309 28.3455 1 25.7733 1 22.5274V1.76603C1 1.45982 1.24827 1.21484 1.55862 1.21484C1.86896 1.21484 2.11723 1.45982 2.11723 1.76603V22.4049C2.11723 25.2834 2.98619 27.6106 4.78617 29.3254C6.58615 31.0402 8.88268 31.8364 11.7999 31.8364C14.7171 31.8364 17.0757 30.979 18.8136 29.3254C20.5515 27.6106 21.4826 25.3446 21.4826 22.4049V1.76603C21.5446 1.45982 21.7929 1.21484 22.1032 1.21484Z" fill="white" stroke="white" stroke-width="2" stroke-miterlimit="10"/>
<path d="M38.6699 14.9691L48.2905 1.43443C48.4146 1.31194 48.6008 1.18945 48.7871 1.18945H48.8491C49.3457 1.18945 49.5939 1.74064 49.3457 2.1081L39.2285 16.2552C39.1044 16.439 39.1044 16.7452 39.2285 16.9289L49.7801 31.6885C50.0284 32.056 49.7801 32.6071 49.2836 32.6071H49.2215C49.0353 32.6071 48.8491 32.5459 48.725 32.3622L38.6699 18.1538C38.4216 17.8476 37.9251 17.8476 37.7389 18.1538L27.6217 32.3622C27.4976 32.4847 27.3114 32.6071 27.1252 32.6071C26.6287 32.6071 26.3804 32.056 26.6286 31.6885L37.1803 16.9289C37.3044 16.7452 37.3044 16.439 37.1803 16.2552L27.0631 2.1081C26.8149 1.74064 27.0631 1.18945 27.5597 1.18945H27.6217C27.808 1.18945 27.9942 1.2507 28.1183 1.43443L37.6768 14.9691C37.9251 15.2754 38.4216 15.2754 38.6699 14.9691Z" fill="white" stroke="white" stroke-width="2" stroke-miterlimit="10"/>
<path d="M72.9951 14.2944C72.933 11.7221 72.3123 9.3949 71.133 7.37388C69.9537 5.29162 68.34 3.76054 66.3538 2.59692C64.3676 1.49455 61.6366 0.943358 59.1539 1.0046L54.3746 1.06584C54.0642 1.06584 53.816 1.31082 53.816 1.61703C53.816 1.92325 54.0642 2.16822 54.3746 2.16822L59.3401 2.10698C61.5125 2.10698 63.809 2.59692 65.609 3.63805C67.471 4.67919 69.0227 6.14902 70.0158 8.04755C71.071 9.94609 71.6917 12.0284 71.6917 14.4168L71.8158 18.4589C71.8158 20.7861 71.3813 22.9296 70.3882 24.8894C69.3951 26.8492 68.0296 28.319 66.1676 29.4214C64.3676 30.5238 61.8849 31.075 59.6504 31.1362L54.3125 31.1974C54.0022 31.1974 53.7539 31.4424 53.7539 31.7486C53.7539 32.0548 54.0022 32.2998 54.3125 32.2998L59.7745 32.2386C62.2573 32.1773 64.6779 31.5649 66.6641 30.34C68.6503 29.1152 70.2641 27.4616 71.3813 25.3793C72.4365 23.2358 73.0572 20.9086 72.9951 18.2752V14.2944Z" fill="white" stroke="white" stroke-width="2" stroke-miterlimit="10"/>
</svg>
